<svg fill="none" viewBox="0 0 280 160" xmlns="http://www.w3.org/2000/svg">
  <!-- Grid lines -->
  <line x1="0" y1="130" x2="280" y2="130" stroke="rgba(255,255,255,0.06)" stroke-width="1"/>
  <line x1="0" y1="97"  x2="280" y2="97"  stroke="rgba(255,255,255,0.06)" stroke-width="1"/>
  <line x1="0" y1="64"  x2="280" y2="64"  stroke="rgba(255,255,255,0.06)" stroke-width="1"/>
  <line x1="0" y1="31"  x2="280" y2="31"  stroke="rgba(255,255,255,0.06)" stroke-width="1"/>
  <!-- Area fill -->
  <path d="M0 130 L35 110 L70 95 L105 78 L140 55 L175 42 L210 30 L245 20 L280 14 L280 130 Z"
        fill="url(#chartFill)" opacity="0.4"/>
  <!-- Line -->
  <path d="M0 130 L35 110 L70 95 L105 78 L140 55 L175 42 L210 30 L245 20 L280 14"
        stroke="url(#chartLine)" stroke-width="2.5" stroke-linecap="round" stroke-linejoin="round" fill="none"/>
  <!-- Data points -->
  <circle cx="140" cy="55" r="4" fill="#6366f1" stroke="#0a0a0f" stroke-width="2"/>
  <circle cx="210" cy="30" r="4" fill="#8b5cf6" stroke="#0a0a0f" stroke-width="2"/>
  <circle cx="280" cy="14" r="4" fill="#06b6d4" stroke="#0a0a0f" stroke-width="2"/>
  <defs>
    <linearGradient id="chartLine" x1="0" y1="0" x2="280" y2="0" gradientUnits="userSpaceOnUse">
      <stop offset="0%"   stop-color="#6366f1"/>
      <stop offset="50%"  stop-color="#8b5cf6"/>
      <stop offset="100%" stop-color="#06b6d4"/>
    </linearGradient>
    <linearGradient id="chartFill" x1="0" y1="0" x2="0" y2="160" gradientUnits="userSpaceOnUse">
      <stop offset="0%"   stop-color="#6366f1" stop-opacity="0.5"/>
      <stop offset="100%" stop-color="#6366f1" stop-opacity="0"/>
    </linearGradient>
  </defs>
</svg>
